<svg width="80" height="80" viewBox="0 0 80 80" fill="none" xmlns="http://www.w3.org/2000/svg">
<path d="M80 40C80 62.0914 62.0914 80 40 80C17.9086 80 0 62.0914 0 40C0 17.9086 17.9086 0 40 0C62.0914 0 80 17.9086 80 40Z" fill="white"/>
<path d="M73.3333 40C73.3333 58.4095 58.4095 73.3334 40 73.3334C21.5905 73.3334 6.66667 58.4095 6.66667 40C6.66667 21.5905 21.5905 6.66669 40 6.66669C58.4095 6.66669 73.3333 21.5905 73.3333 40Z" fill="#000"/>
<g filter="url(#filter0_d_3_6)">
<path d="M50.6867 34.7387C50.6867 36.3111 50.3258 37.7547 49.604 39.0693C48.8822 40.3582 47.7738 41.4022 46.2787 42.2013C44.7836 43.0004 42.9276 43.4 40.7107 43.4H36.612V53.144H30V26H40.7107C42.876 26 44.7062 26.3738 46.2013 27.1213C47.6964 27.8689 48.8178 28.9 49.5653 30.2147C50.3129 31.5293 50.6867 33.0373 50.6867 34.7387ZM40.208 38.1413C41.4711 38.1413 42.412 37.8449 43.0307 37.252C43.6493 36.6591 43.9587 35.8213 43.9587 34.7387C43.9587 33.656 43.6493 32.8182 43.0307 32.2253C42.412 31.6324 41.4711 31.336 40.208 31.336H36.612V38.1413H40.208Z" fill="white"/>
</g>
<defs>
<filter id="filter0_d_3_6" x="26" y="26" width="28.6867" height="35.144" filterUnits="userSpaceOnUse" color-interpolation-filters="sRGB">
<feFlood flood-opacity="0" result="BackgroundImageFix"/>
<feColorMatrix in="SourceAlpha" type="matrix" values="0 0 0 0 0 0 0 0 0 0 0 0 0 0 0 0 0 0 127 0" result="hardAlpha"/>
<feOffset dy="4"/>
<feGaussianBlur stdDeviation="2"/>
<feComposite in2="hardAlpha" operator="out"/>
<feColorMatrix type="matrix" values="0 0 0 0 0 0 0 0 0 0 0 0 0 0 0 0 0 0 0.25 0"/>
<feBlend mode="normal" in2="BackgroundImageFix" result="effect1_dropShadow_3_6"/>
<feBlend mode="normal" in="SourceGraphic" in2="effect1_dropShadow_3_6" result="shape"/>
</filter>
</defs>
</svg>
